<?xml version="1.0" standalone="no"?>
<!DOCTYPE svg PUBLIC "-//W3C//DTD SVG 20010904//EN"
 "http://www.w3.org/TR/2001/REC-SVG-20010904/DTD/svg10.dtd">
<svg version="1.0" xmlns="http://www.w3.org/2000/svg"
 width="700.000000pt" height="700.000000pt" viewBox="0 0 700.000000 700.000000"
 preserveAspectRatio="xMidYMid meet">
<metadata>
Created by potrace 1.14, written by Peter Selinger 2001-2017
</metadata>
<g transform="translate(0.000000,700.000000) scale(0.100000,-0.100000)"
fill="#000000" stroke="none">
<path d="M6205 4816 c-71 -29 -168 -72 -215 -96 -194 -101 -567 -427 -531
-463 6 -6 37 15 83 56 185 167 442 343 685 470 73 38 131 73 127 78 -8 13 -6
13 -149 -45z"/>
<path d="M1227 4824 c-121 -18 -257 -56 -385 -105 -125 -49 -347 -154 -414
-198 -43 -27 -49 -36 -68 -101 -12 -40 -19 -74 -17 -76 3 -3 40 18 83 47 98
63 346 185 479 234 223 83 394 110 643 102 323 -10 516 -63 997 -277 121 -54
238 -105 259 -114 l40 -17 -59 -59 c-33 -33 -66 -60 -73 -60 -8 0 -36 -16 -62
-35 -99 -72 -115 -74 -428 -34 -185 23 -249 24 -327 4 -269 -70 -472 -347
-492 -670 -6 -111 11 -193 67 -312 100 -213 302 -314 605 -300 147 7 254 30
390 83 98 39 129 61 116 82 -7 11 -21 11 -82 -2 -261 -54 -562 -67 -676 -29
-124 41 -204 110 -254 218 -45 95 -62 179 -55 260 10 126 61 270 122 352 48
63 162 56 421 -28 179 -58 222 -60 309 -16 58 29 211 164 255 225 17 23 37 42
45 42 8 0 70 53 138 118 179 170 333 274 556 372 313 138 756 210 1046 169
230 -32 452 -142 622 -308 76 -74 115 -127 161 -218 32 -64 52 -77 70 -46 22
40 -81 223 -194 342 -209 221 -458 331 -785 348 -139 7 -285 -8 -485 -48 -295
-60 -554 -166 -782 -319 l-72 -49 -85 35 c-47 18 -156 66 -243 105 -519 233
-772 300 -1133 298 -91 -1 -205 -7 -253 -15z m993 -805 c96 -11 191 -23 210
-26 l35 -5 -55 -49 c-65 -57 -124 -89 -168 -89 -17 0 -89 18 -159 41 -70 23
-166 49 -213 58 l-85 18 52 26 c102 52 140 55 383 26z"/>
<path d="M3689 4581 c-112 -96 -263 -387 -287 -552 l-7 -51 -75 -19 c-91 -23
-440 -193 -440 -214 0 -21 2 -20 83 24 89 49 288 135 348 151 24 6 52 13 61
16 13 4 22 -5 34 -36 27 -68 73 -78 145 -31 24 16 60 46 78 65 33 34 38 36
104 36 37 0 77 -5 88 -11 12 -6 28 -8 37 -4 33 13 -23 43 -93 50 -36 4 -65 9
-65 11 0 2 13 25 30 52 39 65 76 165 91 247 22 130 -26 307 -84 305 -1 0 -23
-18 -48 -39z m65 -191 c1 -80 -3 -116 -17 -153 -28 -71 -81 -90 -114 -41 -16
25 -16 30 0 92 10 36 38 109 63 161 43 90 47 95 56 71 6 -14 11 -72 12 -130z
m-210 -365 c-9 -14 -19 -24 -21 -21 -7 7 16 46 28 46 5 0 2 -11 -7 -25z m46
-10 c-21 -25 -32 -17 -13 9 10 13 20 20 21 15 2 -5 -2 -16 -8 -24z"/>
<path d="M4818 4220 c-107 -18 -318 -105 -365 -150 -27 -24 -29 -52 -7 -71 18
-14 26 -12 174 51 100 42 233 80 281 80 56 0 107 -24 114 -52 14 -57 -49 -144
-137 -187 -54 -27 -72 -31 -144 -31 -108 0 -180 26 -227 81 -19 21 -39 39 -44
39 -42 0 1 -99 61 -138 62 -42 91 -52 172 -59 41 -3 74 -9 74 -12 0 -23 -35
-200 -52 -263 -16 -63 -28 -85 -60 -117 -51 -52 -117 -90 -203 -117 -44 -14
-71 -28 -73 -38 -5 -24 19 -28 89 -16 67 12 123 37 177 78 26 20 32 21 32 8 0
-19 95 -70 116 -62 24 9 15 34 -21 56 -56 34 -57 45 -14 124 44 82 64 153 80
286 l12 96 43 18 c57 23 128 87 161 144 35 59 38 137 7 179 -41 57 -149 89
-246 73z"/>
<path d="M5845 4185 c-132 -24 -275 -77 -275 -101 0 -19 10 -18 116 16 51 16
143 39 206 51 143 28 140 27 133 39 -8 13 -94 11 -180 -5z"/>
<path d="M5269 3958 c-1 -2 -3 -68 -4 -148 -3 -226 -39 -347 -152 -513 -88
-129 -263 -292 -481 -451 -62 -46 -82 -66 -80 -81 5 -35 36 -28 124 30 84 55
86 55 80 28 -3 -15 -10 -80 -16 -143 -21 -226 -49 -364 -131 -630 -60 -193
-81 -238 -236 -493 -131 -217 -143 -234 -272 -407 -122 -164 -436 -636 -462
-694 l-20 -46 25 -77 c26 -86 37 -93 114 -78 l34 6 -56 59 c-57 60 -65 77 -44
98 7 7 9 12 6 12 -4 0 9 17 28 38 19 20 62 77 96 125 60 84 64 87 93 81 69
-15 444 -158 587 -223 65 -30 67 -30 112 -15 25 9 43 20 40 25 -21 34 -342
167 -569 235 -82 24 -151 47 -153 49 -3 2 63 107 145 232 82 126 160 244 172
264 12 21 31 39 44 42 147 37 600 33 907 -7 166 -22 483 -73 572 -92 22 -4 33
2 62 32 20 21 33 41 28 45 -4 3 -52 14 -107 23 -55 10 -163 29 -240 42 -480
84 -907 105 -1148 57 l-29 -6 25 39 c13 21 54 81 90 131 36 51 88 138 116 193
43 83 56 100 75 100 42 0 427 -40 636 -66 215 -27 526 -76 745 -119 72 -14
137 -25 145 -25 17 0 73 82 62 92 -9 9 -328 69 -545 103 -320 49 -712 85 -939
85 -54 0 -98 2 -98 3 0 2 20 66 45 143 25 76 52 164 60 196 28 104 85 523 85
619 0 44 3 49 53 87 153 119 321 330 387 488 40 97 63 243 58 369 -5 108 -17
145 -48 145 -11 0 -21 -1 -21 -2z"/>
<path d="M3720 3765 c-77 -17 -135 -38 -210 -76 -64 -32 -140 -94 -140 -115 0
-20 4 -18 57 23 79 60 234 123 341 138 42 5 52 11 50 23 -4 22 -21 23 -98 7z"/>
<path d="M5666 3711 c-11 -18 1 -28 41 -35 44 -7 235 -97 317 -150 116 -74
202 -177 262 -313 24 -53 44 -69 44 -35 0 9 -23 63 -50 120 -62 125 -130 200
-252 275 -154 96 -344 168 -362 138z"/>
<path d="M3785 3551 c-115 -94 -267 -284 -317 -396 -33 -74 -98 -287 -98 -321
0 -43 22 -21 37 36 20 78 80 225 120 295 70 120 216 295 308 368 54 42 62 60
30 65 -12 1 -44 -17 -80 -47z"/>
<path d="M1592 2001 c-21 -13 -32 -77 -32 -186 0 -127 11 -196 61 -370 84
-296 252 -572 514 -843 99 -103 98 -103 193 -138 l66 -25 -108 108 c-249 249
-456 549 -554 803 -39 103 -73 305 -79 478 -4 114 -9 157 -20 168 -17 16 -23
17 -41 5z"/>
<path d="M3103 1838 c-33 -37 -99 -154 -134 -236 -53 -129 -72 -244 -65 -402
9 -222 56 -356 226 -645 52 -88 110 -191 130 -230 33 -66 37 -70 72 -73 l37
-3 -28 63 c-30 66 -71 220 -71 266 0 31 28 135 80 297 72 223 85 304 85 530
-1 209 -8 250 -43 243 -15 -3 -17 -24 -18 -198 -1 -176 -3 -205 -27 -295 -14
-55 -46 -182 -71 -283 -25 -100 -57 -204 -70 -230 l-24 -47 -52 110 c-82 176
-127 322 -135 440 -7 105 5 237 31 340 8 33 45 122 81 198 54 110 65 141 57
155 -16 25 -37 25 -61 0z"/>
</g>
</svg>
